<svg width="128" height="128" viewBox="0 0 128 128" fill="none" xmlns="http://www.w3.org/2000/svg">
<g clip-path="url(#clip0_1197_89)">
<path d="M98 0H30C13.4315 0 0 13.4315 0 30V98C0 114.569 13.4315 128 30 128H98C114.569 128 128 114.569 128 98V30C128 13.4315 114.569 0 98 0Z" fill="#F4F2ED"/>
<mask id="mask0_1197_89" style="mask-type:luminance" maskUnits="userSpaceOnUse" x="16" y="14" width="97" height="100">
<path d="M16 14H112.46V114H16V14Z" fill="white"/>
</mask>
<g mask="url(#mask0_1197_89)">
<path d="M72.3787 111.598C69.8482 114.785 64.7171 113.039 64.6561 108.97L63.7646 49.4551H103.782C111.03 49.4551 115.073 57.8271 110.566 63.5036L72.3787 111.598Z" fill="url(#paint0_linear_1197_89)"/>
<path d="M72.3787 111.598C69.8482 114.785 64.7171 113.039 64.6561 108.97L63.7646 49.4551H103.782C111.03 49.4551 115.073 57.8271 110.566 63.5036L72.3787 111.598Z" fill="url(#paint1_linear_1197_89)" fill-opacity="0.2"/>
<path d="M56.1032 15.8336C58.6337 12.6461 63.7647 14.3926 63.8257 18.4616L64.2167 77.9761H24.6997C17.4512 77.9761 13.4087 69.6041 17.9162 63.9276L56.1032 15.8336Z" fill="#3ECF8E"/>
</g>
<path d="M66.625 14.625C66.625 12.4159 68.4159 10.625 70.625 10.625H99.375C101.584 10.625 103.375 12.4159 103.375 14.625V43.375C103.375 45.5841 101.584 47.375 99.375 47.375H70.625C68.4159 47.375 66.625 45.5841 66.625 43.375V14.625Z" fill="#F5DE19"/>
<path d="M91.3118 39.3366C91.6255 39.9722 92.1121 40.5065 92.7157 40.8779C93.3194 41.2494 94.0156 41.4431 94.7243 41.4366C96.155 41.4366 97.0698 40.7213 97.0698 39.7303C97.0698 38.5491 96.13 38.1265 94.555 37.4374L93.6914 37.0673C91.1977 36.0055 89.5439 34.6759 89.5439 31.8645C89.5439 29.2749 91.5127 27.3023 94.601 27.3023C95.6007 27.2302 96.5995 27.4541 97.4728 27.9458C98.3462 28.4376 99.0555 29.1756 99.5123 30.0677L96.8125 31.7936C96.6365 31.3513 96.3303 30.9729 95.9344 30.7085C95.5386 30.4442 95.0717 30.3063 94.5957 30.3131C94.388 30.2923 94.1783 30.315 93.9799 30.3798C93.7814 30.4445 93.5987 30.5499 93.4432 30.6892C93.2877 30.8285 93.163 30.9986 93.0769 31.1888C92.9909 31.3789 92.9453 31.5849 92.9433 31.7936C92.9433 32.8292 93.5851 33.2492 95.0669 33.8936L95.9305 34.2638C98.8653 35.5225 100.524 36.8048 100.524 39.6883C100.524 42.7976 98.0817 44.5013 94.8018 44.5013C93.5239 44.5819 92.25 44.2914 91.1335 43.6647C90.0169 43.0381 89.1053 42.1021 88.5083 40.9693L91.3118 39.3366ZM79.1122 39.6358C79.6542 40.5979 80.1477 41.4116 81.3342 41.4116C82.4682 41.4116 83.1848 40.968 83.1848 39.2421V27.4991H86.638V39.288C86.638 42.8633 84.538 44.4908 81.4812 44.4908C80.4007 44.5498 79.3276 44.2805 78.403 43.7183C77.4784 43.1561 76.7455 42.3273 76.3008 41.3408L79.1122 39.6358Z" fill="black"/>
</g>
<defs>
<linearGradient id="paint0_linear_1197_89" x1="63.7646" y1="62.6511" x2="99.3306" y2="77.5676" gradientUnits="userSpaceOnUse">
<stop stop-color="#249361"/>
<stop offset="1" stop-color="#3ECF8E"/>
</linearGradient>
<linearGradient id="paint1_linear_1197_89" x1="47.9966" y1="41.0616" x2="64.2166" y2="71.5951" gradientUnits="userSpaceOnUse">
<stop/>
<stop offset="1" stop-opacity="0"/>
</linearGradient>
<clipPath id="clip0_1197_89">
<rect width="128" height="128" fill="white"/>
</clipPath>
</defs>
</svg>
